<svg width="700" height="100" viewBox="0 0 700 100" fill="none" xmlns="http://www.w3.org/2000/svg">
<g clip-path="url(#clip0_21_2)">
<rect width="700" height="100" fill="#0F0F0F"/>
<path d="M265.075 68V31.6364H272.763V46.6399H288.37V31.6364H296.04V68H288.37V52.9787H272.763V68H265.075ZM302.379 68V31.6364H326.882V37.9751H310.067V46.6399H325.621V52.9787H310.067V61.6612H326.953V68H302.379ZM332.994 31.6364H340.665V54.5057H340.967L356.681 31.6364H363.41V68H355.722V45.1129H355.455L339.653 68H332.994V31.6364ZM351.744 22.1193H357.018C357.006 24.2737 356.207 26.0078 354.621 27.3217C353.047 28.6357 350.916 29.2926 348.229 29.2926C345.53 29.2926 343.393 28.6357 341.819 27.3217C340.245 26.0078 339.458 24.2737 339.458 22.1193H344.695C344.684 22.9361 344.944 23.67 345.477 24.321C346.021 24.9721 346.939 25.2976 348.229 25.2976C349.484 25.2976 350.383 24.978 350.928 24.3388C351.472 23.6996 351.744 22.9598 351.744 22.1193ZM369.762 68V31.6364H384.109C386.867 31.6364 389.216 32.1631 391.158 33.2166C393.099 34.2583 394.579 35.7083 395.597 37.5668C396.626 39.4134 397.141 41.544 397.141 43.9588C397.141 46.3736 396.621 48.5043 395.579 50.3509C394.537 52.1974 393.028 53.6357 391.051 54.6655C389.086 55.6953 386.707 56.2102 383.913 56.2102H374.769V50.049H382.67C384.15 50.049 385.369 49.7945 386.328 49.2855C387.299 48.7647 388.021 48.0485 388.494 47.1371C388.98 46.2138 389.222 45.1544 389.222 43.9588C389.222 42.7514 388.98 41.6979 388.494 40.7983C388.021 39.8868 387.299 39.1825 386.328 38.6854C385.357 38.1764 384.126 37.9219 382.635 37.9219H377.45V68H369.762ZM435.551 49.8182C435.551 53.7836 434.8 57.1572 433.296 59.9389C431.805 62.7206 429.769 64.8454 427.188 66.3132C424.62 67.7692 421.731 68.4972 418.524 68.4972C415.292 68.4972 412.392 67.7633 409.823 66.2955C407.255 64.8277 405.225 62.7029 403.733 59.9212C402.242 57.1394 401.496 53.7718 401.496 49.8182C401.496 45.8527 402.242 42.4792 403.733 39.6974C405.225 36.9157 407.255 34.7969 409.823 33.3409C412.392 31.8731 415.292 31.1392 418.524 31.1392C421.731 31.1392 424.62 31.8731 427.188 33.3409C429.769 34.7969 431.805 36.9157 433.296 39.6974C434.8 42.4792 435.551 45.8527 435.551 49.8182ZM427.757 49.8182C427.757 47.2495 427.372 45.0833 426.602 43.3196C425.845 41.5559 424.774 40.2183 423.389 39.3068C422.004 38.3954 420.382 37.9396 418.524 37.9396C416.665 37.9396 415.044 38.3954 413.659 39.3068C412.274 40.2183 411.196 41.5559 410.427 43.3196C409.669 45.0833 409.291 47.2495 409.291 49.8182C409.291 52.3868 409.669 54.553 410.427 56.3168C411.196 58.0805 412.274 59.4181 413.659 60.3295C415.044 61.241 416.665 61.6967 418.524 61.6967C420.382 61.6967 422.004 61.241 423.389 60.3295C424.774 59.4181 425.845 58.0805 426.602 56.3168C427.372 54.553 427.757 52.3868 427.757 49.8182Z" fill="#1F86C9"/>
<rect x="5" y="5" width="690" height="90" rx="20" stroke="#1F86C9" stroke-width="10"/>
</g>
<defs>
<clipPath id="clip0_21_2">
<rect width="700" height="100" fill="white"/>
</clipPath>
</defs>
</svg>
