<?xml version="1.0" standalone="no"?>
<!DOCTYPE svg PUBLIC "-//W3C//DTD SVG 20010904//EN"
 "http://www.w3.org/TR/2001/REC-SVG-20010904/DTD/svg10.dtd">
<svg version="1.0" xmlns="http://www.w3.org/2000/svg"
 width="260.000000pt" height="260.000000pt" viewBox="0 0 260.000000 260.000000"
 preserveAspectRatio="xMidYMid meet">
<metadata>
Created by potrace 1.14, written by Peter Selinger 2001-2017
</metadata>
<g transform="translate(0.000000,260.000000) scale(0.100000,-0.100000)"
fill="#000000" stroke="none">
<path d="M1251 1769 c-83 -20 -154 -82 -178 -154 -14 -42 -9 -128 10 -168 24
-49 88 -104 196 -167 114 -67 145 -103 145 -170 0 -58 -23 -96 -68 -115 -89
-37 -200 35 -252 164 -11 29 -21 40 -31 37 -8 -3 -19 -6 -24 -6 -6 0 -7 -18
-3 -47 4 -27 8 -55 9 -63 9 -60 19 -101 29 -108 26 -21 144 -41 221 -38 95 4
158 30 216 88 38 39 69 113 69 166 0 87 -66 172 -180 231 -157 82 -200 125
-195 194 4 49 28 85 69 102 78 33 166 -13 201 -103 16 -42 24 -52 44 -52 24 0
24 1 17 78 -8 102 -14 119 -39 126 -43 12 -213 15 -256 5z"/>
<path d="M1992 1764 c-77 -20 -129 -50 -187 -108 -87 -87 -127 -200 -119 -333
13 -216 170 -371 393 -390 115 -10 249 34 329 107 127 117 168 339 93 504 -83
183 -295 275 -509 220z m194 -60 c95 -45 155 -185 154 -359 0 -103 -3 -123
-19 -184 -30 -107 -101 -171 -189 -171 -158 0 -256 161 -247 405 4 113 11 148
40 205 56 110 161 152 261 104z"/>
<path d="M77 1760 c-7 -3 -12 -11 -11 -17 1 -7 2 -17 3 -23 0 -5 14 -10 30
-10 37 0 79 -35 90 -75 10 -36 7 -517 -3 -562 -9 -37 -48 -73 -81 -73 -16 0
-24 -7 -27 -25 l-5 -25 158 0 159 0 0 24 c0 20 -6 25 -45 31 -77 11 -79 19
-83 305 -3 242 -3 245 16 225 18 -19 464 -553 488 -583 13 -17 74 -24 79 -8 2
6 5 169 7 362 3 331 4 353 22 373 11 12 33 25 50 29 21 6 32 15 34 30 2 13 -2
22 -10 23 -17 1 -257 1 -281 0 -23 -1 -20 -46 3 -47 33 -1 79 -16 90 -29 6 -7
13 -24 16 -36 8 -37 11 -430 3 -427 -7 3 -29 28 -298 343 -85 99 -158 184
-162 189 -8 9 -221 15 -242 6z"/>
</g>
</svg>
